<?xml version="1.0" encoding="UTF-8"?>
<svg width="24px" height="24px" viewBox="0 0 24 24" version="1.1" xmlns="http://www.w3.org/2000/svg" xmlns:xlink="http://www.w3.org/1999/xlink">
    <title>Marksix/Icon/24x24px/delete</title>
    <defs>
        <path d="M11.248851,4.48315015e-05 C11.4392265,-0.00217384216 11.6224475,0.0780385467 11.7570723,0.222685549 C11.8916972,0.367332552 11.9663519,0.564193452 11.9641508,0.768741533 L11.9641508,3.07439279 L15.5569063,3.07439279 C15.9204048,3.11620493 16.1976043,3.49122845 16.1976043,3.88401942 C16.1976043,4.27681039 15.9219458,4.60639094 15.5584473,4.64820308 L14.7781203,4.64820308 L13.9637387,17.2925756 C13.9380652,17.6916193 13.6288478,18.0009436 13.2565674,17.9999978 L3.02290386,17.9999978 C2.65062342,18.0009436 2.34140605,17.6916193 2.31573251,17.2925756 L1.5107522,4.64820308 L0.79545245,4.64820308 C0.52319742,4.67951976 0.258192209,4.5410994 0.112945162,4.29170856 C-0.032301885,4.04231772 -0.0401622004,3.68027814 0.105084847,3.43088731 C0.250331894,3.18149647 0.515337104,3.04307611 0.787592135,3.07439279 L4.38034771,3.07439279 L4.38034771,0.768741533 C4.37817564,0.565716628 4.45172098,0.370202985 4.58457749,0.225815173 C4.717434,0.0814273596 4.89854868,4.48315015e-05 5.08751905,4.48315015e-05 Z M13.3994838,4.64505993 L2.97932051,4.64505993 L3.79303832,16.4472392 L12.5872652,16.4472392 L13.3994838,4.64505993 Z M10.809878,6.39667717 C11.0395676,6.28121516 11.3091398,6.30618418 11.5170493,6.46217863 C11.7249589,6.61817308 11.8396195,6.88149369 11.8178395,7.15295014 L11.2651078,13.9651016 C11.2353896,14.3606927 10.9273137,14.6650703 10.5579365,14.6638422 L10.4929092,14.6638422 C10.1026953,14.6222811 9.79688931,14.2406495 9.82523161,13.8204388 L10.3860916,7.00828736 C10.4078716,6.73683092 10.5801884,6.51213917 10.809878,6.39667717 Z M5.14152285,6.32326502 C5.5340647,6.28797771 5.9195353,6.57230346 5.9539741,6.99392117 L6.51483414,13.8060726 C6.54317644,14.2262833 6.25931333,14.6038361 5.86909943,14.6453517 L5.80407218,14.6453517 C5.43469497,14.6466254 5.0818286,14.3606927 5.05211038,13.9651016 L4.49937875,7.15295014 C4.4813162,6.9512523 4.53898416,6.75015794 4.65956618,6.59435942 C4.7801482,6.43856089 4.95365406,6.34096608 5.14152285,6.32326502 Z M8.09610641,6.30579797 C8.53351361,6.30579797 8.8881022,6.64988971 8.8881022,7.07434839 L8.8881022,13.9127004 C8.84501454,14.3032596 8.50537982,14.5994395 8.10060639,14.5994395 C7.69583296,14.5994395 7.35619824,14.3032596 7.31311059,13.9127004 L7.31311059,7.07434839 C7.31308257,6.65327711 7.66221797,6.31058287 8.09610641,6.30579797 Z M10.5114914,1.57508316 L5.85027782,1.57508316 L5.85027782,3.07439279 L10.5114914,3.07439279 L10.5114914,1.57508316 Z" id="path-1"></path>
    </defs>
    <g id="Asset" stroke="none" stroke-width="1" fill="none" fill-rule="evenodd">
        <g id="Group">
            <rect id="Rectangle" x="0" y="0" width="24" height="24"></rect>
            <g id="Icon/delete" transform="translate(4.004278, 2.999898)">
                <mask id="mask-2" fill="white">
                    <use xlink:href="#path-1"></use>
                </mask>
                <use id="Combined-Shape" fill="currentColor" fill-rule="nonzero" xlink:href="#path-1"></use>
            </g>
        </g>
        <g id="Group-3" transform="translate(-235.000000, -1596.000000)"></g>
    </g>
</svg>