<svg id="图层_1" data-name="图层 1" xmlns="http://www.w3.org/2000/svg" viewBox="0 0 84 84"><defs><style>.cls-1{fill:#fff;}.cls-2{fill:#ff5151;}</style></defs><title>感叹号</title><path class="cls-1" d="M42,0A42,42,0,1,0,84,42,42,42,0,0,0,42,0Zm0,78.4A36.4,36.4,0,1,1,78.4,42,36.44,36.44,0,0,1,42,78.4Z"/><path class="cls-2" d="M42,0A42,42,0,1,0,84,42,42,42,0,0,0,42,0Zm0,78.4A36.4,36.4,0,1,1,78.4,42,36.44,36.44,0,0,1,42,78.4Z"/><path class="cls-1" d="M42,18.2A2.8,2.8,0,0,0,39.2,21V50.4a2.8,2.8,0,0,0,5.6,0V21A2.8,2.8,0,0,0,42,18.2Z"/><path class="cls-2" d="M42,18.2A2.8,2.8,0,0,0,39.2,21V50.4a2.8,2.8,0,0,0,5.6,0V21A2.8,2.8,0,0,0,42,18.2Z"/><circle class="cls-1" cx="42" cy="63" r="2.8"/><path class="cls-2" d="M42,60.2A2.8,2.8,0,1,0,44.8,63,2.8,2.8,0,0,0,42,60.2Z"/></svg>