<svg id="图层_1" data-name="图层 1" xmlns="http://www.w3.org/2000/svg" viewBox="0 0 84 84"><defs><style>.cls-1{fill:#fff;}.cls-2{fill:#ff5151;}</style></defs><title>失败</title><path class="cls-1" d="M42,0A42,42,0,1,0,84,42,42,42,0,0,0,42,0Zm0,78.4A36.4,36.4,0,1,1,78.4,42,36.44,36.44,0,0,1,42,78.4Z"/><path class="cls-2" d="M42,0A42,42,0,1,0,84,42,42,42,0,0,0,42,0Zm0,78.4A36.4,36.4,0,1,1,78.4,42,36.44,36.44,0,0,1,42,78.4Z"/><path class="cls-1" d="M60.15,23.85a2.81,2.81,0,0,0-4,0L42,38,27.81,23.85a2.8,2.8,0,1,0-4,4L38,42,23.85,56.19a2.8,2.8,0,1,0,4,4L42,46,56.19,60.15a2.8,2.8,0,1,0,4-4L46,42,60.15,27.81A2.81,2.81,0,0,0,60.15,23.85Z"/><path class="cls-2" d="M58.17,23a2.78,2.78,0,0,0-2,.82L42,38,27.81,23.85a2.8,2.8,0,0,0-4,0,2.81,2.81,0,0,0,0,4L38,42,23.85,56.19a2.81,2.81,0,0,0,0,4,2.8,2.8,0,0,0,4,0L42,46,56.19,60.15a2.8,2.8,0,0,0,4,0,2.81,2.81,0,0,0,0-4L46,42,60.15,27.81a2.81,2.81,0,0,0,0-4,2.78,2.78,0,0,0-2-.82Z"/></svg>