<svg id="图层_1" data-name="图层 1" xmlns="http://www.w3.org/2000/svg" viewBox="0 0 84 84"><defs><style>.cls-1{fill:#fff;}.cls-2{fill:#2bcb2b;}</style></defs><title>成功</title><path class="cls-1" d="M42,0A42,42,0,1,0,84,42,42,42,0,0,0,42,0Zm0,78.4A36.4,36.4,0,1,1,78.4,42,36.44,36.44,0,0,1,42,78.4Z"/><path class="cls-2" d="M42,0A42,42,0,1,0,84,42,42,42,0,0,0,42,0Zm0,78.4A36.4,36.4,0,1,1,78.4,42,36.44,36.44,0,0,1,42,78.4Z"/><path class="cls-1" d="M63.5,26a2.81,2.81,0,0,0-3.92.61L41.14,51.84,23.81,39.18A2.8,2.8,0,1,0,20.5,43.7L40.1,58A2.8,2.8,0,0,0,44,57.41L64.11,29.9A2.82,2.82,0,0,0,63.5,26Z"/><path class="cls-2" d="M61.85,25.44a2.8,2.8,0,0,0-2.27,1.15L41.14,51.84,23.81,39.18a2.81,2.81,0,0,0-3.92.61,2.8,2.8,0,0,0,.61,3.91L40.1,58A2.79,2.79,0,0,0,44,57.41L64.11,29.9a2.8,2.8,0,0,0-2.26-4.46Z"/></svg>